<svg width="187" height="39" viewBox="0 0 187 39" fill="none" xmlns="http://www.w3.org/2000/svg">
<path d="M46.8484 0.919964V19.8688H40.9853V0.919964H46.8484Z" fill="white"/>
<path d="M56.3616 14.9971H71.0335L67.238 19.8688H50.4985V0.919964H56.3616V14.9971Z" fill="white"/>
<path d="M78.8494 14.9971H93.5213L89.7259 19.8688H72.9863V0.919964H78.8494V14.9971Z" fill="white"/>
<path d="M124.586 19.8688H102.549L106.09 14.9971H110.848C111.981 14.9971 113.313 14.9971 114.219 15.0537C113.709 14.3739 112.916 13.2127 112.293 12.3063L108.894 7.2929L100 19.8688H93.0608L105.212 2.73271C106.005 1.62807 107.166 0.608398 109.007 0.608398C110.763 0.608398 111.925 1.5431 112.746 2.73271L124.586 19.8688Z" fill="white"/>
<path d="M132.623 0.919964V19.8688H126.76V0.919964H132.623Z" fill="white"/>
<path d="M155.477 20.1804C154.74 20.1804 154.032 20.0105 153.126 19.1607L141.513 8.73744V19.8688H136.188V4.14892C136.188 1.62807 137.718 0.608398 139.389 0.608398C140.097 0.608398 140.805 0.778343 141.74 1.62807L153.353 12.0514V0.919964H158.706V16.6116C158.706 19.1324 157.176 20.1804 155.477 20.1804Z" fill="white"/>
<path d="M169.414 8.48252H179.724C184.341 8.48252 186.834 10.2103 186.834 13.6658C186.834 17.5463 184.483 19.8688 178.704 19.8688H161.059L164.826 14.9971H179.158C180.546 14.9971 181.169 14.6005 181.169 13.6092C181.169 12.6462 180.546 12.2496 179.158 12.2496H168.848C163.976 12.2496 161.738 10.0687 161.738 6.81139C161.738 3.24255 164.118 0.919964 169.867 0.919964H186.324L182.557 5.84837H169.414C168.055 5.84837 167.403 6.18826 167.403 7.15128C167.403 8.1143 168.055 8.48252 169.414 8.48252Z" fill="white"/>
<path d="M4.59809 0.592773H11.7924L17.7643 9.40175L14.5374 9.60938H20.3533L22.988 13.4959L25.7366 9.60938H32.6456L26.6701 18.056C25.8487 19.1607 24.6875 20.1804 22.8747 20.1804C21.1186 20.1804 19.9573 19.2457 19.1359 18.056L13.3395 9.68646L11.0003 9.83697L4.59809 0.592773Z" fill="white"/>
<path d="M30.4694 8.58426L23.2308 9.05002L29.2118 0.592773H36.1229L30.4694 8.58426Z" fill="white"/>
<path fill-rule="evenodd" clip-rule="evenodd" d="M0 12.8417C0.544422 12.3663 2.04049 11.5698 2.2862 11.6098C3.7862 11.1098 4.60713 11.4482 5.28608 11.1094C5.54338 10.9809 6.5942 10.7353 6.88556 10.421C7.54101 9.71429 7.95718 9.53339 8.518 9.71163C8.87645 9.82563 9.06676 9.77561 9.60826 9.42484C10.205 9.03862 10.3127 9.01638 10.7979 9.17942C11.2632 9.33577 11.3923 9.31831 11.8074 9.04331C12.0691 8.86988 12.5317 8.70481 12.8354 8.67657C13.139 8.64834 13.5808 8.60791 13.817 8.58685C14.5946 8.5177 16.0352 8.01246 16.3931 7.68338C16.7268 7.37634 16.7434 7.37621 16.7236 7.67835C16.6917 8.16614 16.9971 8.18893 18.3705 7.80142C19.6117 7.45136 20.0495 7.4857 19.6313 7.90037C19.4178 8.11193 19.4182 8.11498 19.6705 8.21441C19.8108 8.26971 20.15 8.29303 20.4243 8.2663C21.1203 8.19831 22.1611 8.5129 22.4755 8.88643C22.826 9.30285 23.0708 9.24911 24.2288 8.50248C25.3179 7.80037 25.8012 7.6811 26.4448 7.95604C26.7127 8.07042 26.9393 8.07702 27.0322 7.97301C27.2639 7.71365 27.6829 7.70919 27.8809 7.96397C27.9994 8.11634 28.254 8.15719 28.6423 8.08612C29.0548 8.01075 29.3059 8.05787 29.4985 8.24712C29.6484 8.39427 29.9032 8.49872 30.0647 8.47904C30.2262 8.45935 30.859 7.54643 31.2861 7.60938C31.8453 7.67682 33.1581 7.73848 33.6125 7.84181C34.6109 8.06869 34.2861 7.10937 35.7861 8.10937C36.3706 8.33435 36.4874 8.15915 37.7861 8.10937C39.1728 8.05626 40.1769 7.70746 41.2861 8.60937C41.2861 8.60937 40.2759 9.52933 39.2087 10.1814C37.9809 10.3456 38.6422 10.0604 37.9809 10.3456C37.6117 10.5049 37.1859 10.5979 37.0348 10.5524C36.8838 10.5068 36.3 10.4614 35.7375 10.4515C34.9045 10.437 34.5875 11.241 34.4129 10.9677C34.2449 10.7043 34.0728 10.6475 33.6125 10.7036C32.8688 10.7943 32.6242 10.698 32.5752 10.2958C32.4957 10.2305 32.4258 10.4045 31.9646 10.4607C31.6603 10.4978 31.1311 10.5563 30.7591 10.4291C30.2699 10.2619 29.6387 10.5039 29.0502 10.6303C28.2629 10.7994 28.2307 10.7911 28.0608 10.3767C27.895 9.97216 27.8393 9.95437 27.0577 10.0548C26.3432 10.1465 26.263 10.1883 26.4714 10.3601C26.6041 10.4696 26.72 10.618 26.7288 10.6899C26.7529 10.888 24.8809 10.907 24.7624 10.7098C24.6898 10.589 24.3081 10.6561 23.4764 10.936C22.3051 11.3303 22.2894 11.3309 21.8782 11.0008C21.3454 10.5732 20.5445 10.5783 18.9567 11.0195C17.8866 11.3167 17.6303 11.3356 17.0439 11.1601C16.4635 10.9866 16.2188 11.0032 15.3302 11.2764C14.3782 11.5691 14.2535 11.5724 13.8032 11.3159C13.1241 10.9292 12.6181 11.0356 11.8481 11.7272L11.1886 12.3195L10.6212 12.0657C9.7137 11.6601 9.09754 11.666 8.23549 12.0886C7.63173 12.3847 7.37075 12.4381 7.05565 12.3305C6.48088 12.1346 5.88263 12.2417 5.73811 12.5666C5.63812 12.7917 5.44137 12.8439 4.70394 12.8412C4.13121 12.8392 3.74364 12.9107 3.65987 13.0337C3.57315 13.161 3.02579 13.2509 2.0933 13.291L0.659969 13.3527L0 12.8417Z" fill="white"/>
<path fill-rule="evenodd" clip-rule="evenodd" d="M1.39461 12.3893C1.95549 12.049 2.28867 11.9149 2.53156 11.9319C2.93339 11.9601 5.19988 11.4903 5.88913 11.236C6.15034 11.1395 6.61175 10.8789 6.91433 10.6566C7.595 10.1569 8.01642 10.019 8.56731 10.1158C8.91941 10.1777 9.1108 10.1366 9.66377 9.87983C10.2731 9.59712 10.3812 9.57788 10.8574 9.66757C11.3142 9.75357 11.4434 9.73668 11.8674 9.53578C12.1349 9.40908 12.6019 9.27989 12.9052 9.24876C13.2085 9.21762 13.6496 9.17277 13.8856 9.14915C14.6621 9.07154 16.116 8.67515 16.4854 8.44032C16.8298 8.22123 16.8463 8.22047 16.8145 8.42365C16.7632 8.75166 17.0661 8.75464 18.4484 8.43981C19.6975 8.15538 20.1318 8.16076 19.699 8.45535C19.4781 8.60565 19.4783 8.60768 19.7254 8.66412C19.8627 8.69552 20.1993 8.69748 20.4734 8.66854C21.1687 8.59499 22.1917 8.76382 22.4895 9.00137C22.8216 9.26619 23.0673 9.22034 24.2498 8.67363C25.3617 8.15952 25.8475 8.06018 26.4768 8.21844C26.7388 8.28427 26.9641 8.27957 27.0607 8.20616C27.3017 8.02312 27.7188 8.00327 27.9056 8.16596C28.0173 8.26325 28.269 8.28037 28.6584 8.21713C29.0718 8.15005 29.3198 8.1715 29.5038 8.29052C29.6471 8.38305 29.8964 8.44276 30.0579 8.42307C30.2194 8.40339 31.4663 8.06192 31.8887 8.0869C32.4425 8.10957 33.1025 8.13422 33.5505 8.18515C34.5349 8.29694 34.8138 7.76022 35.7217 8.24505C36.4239 8.62015 36.6453 8.41101 37.9396 8.32541C39.3217 8.23402 39.8937 8.05374 40.9612 8.61322C40.9612 8.61322 40.1767 8.71565 39.0886 9.19539C37.8602 9.35476 38.5297 9.13709 37.8602 9.35476C37.4864 9.47636 37.059 9.55578 36.9104 9.53135C36.7619 9.50691 36.1829 9.49997 35.6235 9.516C34.7952 9.53979 34.4473 10.0911 34.2847 9.91505C34.128 9.74536 33.9591 9.71427 33.4988 9.77037C32.7551 9.86102 32.5156 9.8064 32.483 9.53893C32.4065 9.49838 32.33 9.61778 31.8687 9.674C31.5644 9.71109 31.0355 9.77154 30.6704 9.70136C30.1904 9.60904 29.5525 9.79652 28.9618 9.90487C28.1715 10.0498 28.1399 10.0455 27.9875 9.77481C27.8388 9.51052 27.784 9.50084 27.0022 9.59956C26.2875 9.68976 26.2061 9.72095 26.4066 9.82767C26.5342 9.89569 26.6435 9.99042 26.6494 10.0382C26.6654 10.1699 24.8018 10.258 24.6919 10.1307C24.6245 10.0526 24.2419 10.113 23.4031 10.3339C22.2216 10.6452 22.206 10.6462 21.8101 10.4416C21.2971 10.1767 20.5 10.2123 18.9022 10.5717C17.8253 10.8139 17.5696 10.8368 16.9931 10.7429C16.4226 10.6501 16.1784 10.671 15.2832 10.8898C14.324 11.1241 14.1998 11.1314 13.7621 10.9777C13.1018 10.746 12.594 10.8376 11.8 11.3318L11.1199 11.7551L10.5655 11.608C9.67873 11.3728 9.06535 11.4016 8.19053 11.7193C7.57782 11.9419 7.31597 11.9882 7.00674 11.9289C6.44267 11.8207 5.84305 11.9166 5.68616 12.14C5.5776 12.2948 5.37972 12.3377 4.64601 12.3656C4.07618 12.3872 3.68763 12.4507 3.59932 12.5365C3.5079 12.6253 2.9596 12.7075 2.03008 12.7719L0.601294 12.8709L1.39461 12.3893Z" fill="#F14B64"/>
<path d="M33.8785 38.6091L28.7207 30.085H31.0732L34.6856 36.2664L38.0913 30.085H40.247L35.3057 38.6091H33.8785Z" fill="white"/>
<path d="M61.3765 38.6091V32.085C61.3765 30.9804 62.272 30.085 63.3765 30.085H70.5208V31.591H63.4731V33.4513H67.5777V34.9179H63.4731V37.0145H70.629V38.6091H61.3765Z" fill="white"/>
<path d="M99.1803 31.5516H94.4359V33.9139H99.1803C99.5412 33.9139 99.7873 33.8614 99.9185 33.7564C100.056 33.6514 100.125 33.4743 100.125 33.2249V32.2406C100.125 31.9912 100.056 31.8141 99.9185 31.7091C99.7873 31.6041 99.5412 31.5516 99.1803 31.5516ZM92.3885 38.6091V30.085H100.066C100.768 30.085 101.277 30.2162 101.592 30.4787C101.907 30.7346 102.064 31.1546 102.064 31.7386V33.7466C102.064 34.3241 101.907 34.7407 101.592 34.9967C101.277 35.2526 100.768 35.3805 100.066 35.3805H98.8948L102.95 38.6091H99.9677L96.3947 35.3805H94.4359V38.6091H92.3885Z" fill="white"/>
<path d="M126.255 31.6106V33.4119H131.807C132.679 33.4119 133.267 33.553 133.568 33.8352C133.87 34.1108 134.021 34.639 134.021 35.4199V36.5912C134.021 37.3721 133.867 37.9037 133.559 38.1858C133.25 38.468 132.666 38.6091 131.807 38.6091H126.275C125.395 38.6091 124.798 38.468 124.483 38.1858C124.175 37.9037 124.021 37.3721 124.021 36.5912V36.355H125.871V37.0145H132.141V35.0656H126.619C125.747 35.0656 125.156 34.9245 124.848 34.6423C124.539 34.3536 124.385 33.8221 124.385 33.0477V32.093C124.385 31.3252 124.539 30.8002 124.848 30.5181C125.156 30.2293 125.747 30.085 126.619 30.085C126.619 30.085 130.819 30.085 131.679 30.085C132.538 30.085 133.91 30.085 133.91 30.085C133.91 30.085 133.91 30.9216 133.91 31.6106H126.255Z" fill="white"/>
<path d="M156.362 38.6091V32.085C156.362 30.9804 157.257 30.085 158.362 30.085H165.506V31.591H158.458V33.4513H162.563V34.9179H158.458V37.0145H165.614V38.6091H156.362Z" fill="white"/>
</svg>
